<svg xmlns="http://www.w3.org/2000/svg" viewBox="0 0 512 512">
  <defs>
    <linearGradient id="goldGradient" x1="0%" y1="0%" x2="100%" y2="100%">
      <stop offset="0%" style="stop-color:#FFD700;stop-opacity:1" />
      <stop offset="100%" style="stop-color:#B8860B;stop-opacity:1" />
    </linearGradient>
  </defs>
  <rect width="512" height="512" rx="128" fill="#800000"/>
  <path d="M256 120c-40 0-72 32-72 72s32 72 72 72 72-32 72-72-32-72-72-72zm0 120c-26.5 0-48-21.5-48-48s21.5-48 48-48 48 21.5 48 48-21.5 48-48 48z" fill="url(#goldGradient)"/>
  <path d="M256 80c-61.9 0-112 50.1-112 112v48h224v-48c0-61.9-50.1-112-112-112zm80 144H176v-32c0-44.1 35.9-80 80-80s80 35.9 80 80v32z" fill="url(#goldGradient)"/>
  <path d="M120 400h272v-40H120v40zm272-120H120v24h272v-24zm-272 56h272v-24H120v24z" fill="url(#goldGradient)"/>
  <path d="M256 150l-150 200h300L256 150z" opacity="0.1" fill="#000"/>
</svg>
